<svg version="1.1" id="Layer_1" xmlns="http://www.w3.org/2000/svg" xmlns:xlink="http://www.w3.org/1999/xlink" x="0px" y="0px"
	 width="100%" viewBox="0 0 500 500" enable-background="new 0 0 500 500" xml:space="preserve">
<path fill="#000000" opacity="1.000000" stroke="none" 
	d="
M501.000000,174.000000 
	C501.000000,283.333313 501.000000,392.166595 501.000000,500.999939 
	C334.333405,500.999939 167.666794,500.999939 1.000148,500.999969 
	C1.000099,334.333435 1.000099,167.666870 1.000049,1.000237 
	C167.666519,1.000158 334.333038,1.000158 500.999786,1.000079 
	C501.000000,58.500000 501.000000,116.000000 501.000000,174.000000 
M450.601105,233.911942 
	C440.103790,217.206451 424.102020,207.738846 406.627563,199.986923 
	C389.959808,192.592896 372.322906,190.814987 354.463593,190.041092 
	C348.888794,189.799530 343.294708,190.003448 337.709442,190.003448 
	C339.590332,188.362518 341.635620,187.796234 343.559387,186.952667 
	C352.531281,183.018616 361.926392,179.772537 370.276184,174.784088 
	C377.021545,170.754181 382.117096,164.058670 388.605896,159.483673 
	C402.476166,149.704300 411.627808,136.787277 417.475433,120.993019 
	C429.430817,88.701729 414.254761,52.135105 383.643494,39.400654 
	C363.142395,30.872097 341.713165,27.091515 319.775085,27.157509 
	C283.487793,27.266668 247.203461,28.357347 210.917999,29.041893 
	C209.919861,29.060724 208.924225,29.193052 207.925903,29.224457 
	C189.632431,29.799931 171.333603,30.934654 153.046631,30.768576 
	C136.764648,30.620703 120.496078,29.025398 104.220993,28.079227 
	C90.675423,27.291742 86.915520,30.079046 84.351753,43.336212 
	C83.703987,46.685818 82.470650,48.485355 78.938705,49.424477 
	C76.707108,50.017849 74.132683,52.135193 73.220558,54.226830 
	C71.806679,57.469025 71.143951,61.266075 71.099884,64.839432 
	C70.896919,81.297890 70.894089,97.761604 71.061363,114.220978 
	C71.208504,128.699341 71.937073,143.174072 71.958038,157.651062 
	C72.057449,226.295486 72.027092,294.940155 71.964058,363.584656 
	C71.957794,370.398773 71.441925,377.213623 71.116119,384.025909 
	C70.806229,390.505524 70.155396,396.982849 70.170265,403.459991 
	C70.185104,409.925659 73.333298,414.847107 79.738167,416.563660 
	C85.634651,418.143921 91.737206,419.716217 97.781700,419.853821 
	C126.580551,420.509216 155.390564,420.672577 184.196533,421.019073 
	C185.361511,421.033081 186.525085,421.166473 187.690048,421.180206 
	C207.499771,421.413818 227.325790,422.238678 247.115189,421.706024 
	C270.221344,421.084076 293.303192,419.396210 316.381592,417.947784 
	C340.650665,416.424683 363.535553,410.181641 384.922577,398.239136 
	C404.649445,387.223633 420.694092,371.684662 437.397980,356.945557 
	C442.732422,352.238556 447.946503,347.075592 451.974823,341.261536 
	C472.764862,311.255249 472.168549,266.609619 450.601105,233.911942 
z"/>
<path fill="#110905" opacity="1.000000" stroke="none" 
	d="
M450.802368,234.211060 
	C472.168549,266.609619 472.764862,311.255249 451.974823,341.261536 
	C447.946503,347.075592 442.732422,352.238556 437.397980,356.945557 
	C420.694092,371.684662 404.649445,387.223633 384.922577,398.239136 
	C363.535553,410.181641 340.650665,416.424683 316.381592,417.947784 
	C293.303192,419.396210 270.221344,421.084076 247.115189,421.706024 
	C227.325790,422.238678 207.499771,421.413818 187.690048,421.180206 
	C186.525085,421.166473 185.361511,421.033081 184.196533,421.019073 
	C155.390564,420.672577 126.580551,420.509216 97.781700,419.853821 
	C91.737206,419.716217 85.634651,418.143921 79.738167,416.563660 
	C73.333298,414.847107 70.185104,409.925659 70.170265,403.459991 
	C70.155396,396.982849 70.806229,390.505524 71.116119,384.025909 
	C71.441925,377.213623 71.957794,370.398773 71.964058,363.584656 
	C72.027092,294.940155 72.057449,226.295486 71.958038,157.651062 
	C71.937073,143.174072 71.208504,128.699341 71.061363,114.220978 
	C70.894089,97.761604 70.896919,81.297890 71.099884,64.839432 
	C71.143951,61.266075 71.806679,57.469025 73.220558,54.226830 
	C74.132683,52.135193 76.707108,50.017849 78.938705,49.424477 
	C82.470650,48.485355 83.703987,46.685818 84.351753,43.336212 
	C86.915520,30.079046 90.675423,27.291742 104.220993,28.079227 
	C120.496078,29.025398 136.764648,30.620703 153.046631,30.768576 
	C171.333603,30.934654 189.632431,29.799931 207.925903,29.224457 
	C208.924225,29.193052 209.919861,29.060724 210.917999,29.041893 
	C247.203461,28.357347 283.487793,27.266668 319.775085,27.157509 
	C341.713165,27.091515 363.142395,30.872097 383.643494,39.400654 
	C414.254761,52.135105 429.430817,88.701729 417.475433,120.993019 
	C411.627808,136.787277 402.476166,149.704300 388.605896,159.483673 
	C382.117096,164.058670 377.021545,170.754181 370.276184,174.784088 
	C361.926392,179.772537 352.531281,183.018616 343.559387,186.952667 
	C341.635620,187.796234 339.590332,188.362518 337.709442,190.003448 
	C343.294708,190.003448 348.888794,189.799530 354.463593,190.041092 
	C372.322906,190.814987 389.959808,192.592896 406.627563,199.986923 
	C424.102020,207.738846 440.103790,217.206451 450.802368,234.211060 
M450.226257,332.629486 
	C460.027313,314.913879 463.051147,295.925598 459.963776,276.094818 
	C455.358398,246.513611 441.157593,223.504715 413.529480,209.847626 
	C397.280884,201.815643 380.147003,197.829910 362.146210,196.742706 
	C333.006226,194.982712 304.258087,196.805695 276.027832,204.796936 
	C265.801178,207.691833 255.465714,210.246948 245.088196,212.542618 
	C240.892242,213.470825 236.668915,212.619888 234.239014,208.311996 
	C231.819611,204.022690 232.209366,198.125534 236.360641,195.146286 
	C241.513519,191.448196 247.217300,187.544815 253.233643,186.208405 
	C270.116547,182.458160 287.347656,180.308365 304.319366,176.916580 
	C324.363708,172.910736 344.542358,169.195511 364.185699,163.661087 
	C388.551849,156.795990 405.003967,140.839966 412.538177,116.111320 
	C420.522064,89.906853 411.983337,63.648357 388.529266,49.646976 
	C378.462708,43.637535 366.605682,39.850124 355.067261,37.245831 
	C331.355103,31.893848 307.085907,32.798782 282.907501,33.317932 
	C234.279831,34.362061 185.648315,35.288177 137.013916,35.914410 
	C125.209274,36.066406 113.387718,34.854053 101.572975,34.289295 
	C93.227600,33.890377 91.475319,34.838123 90.862885,42.979034 
	C90.241394,51.240280 90.869263,59.592049 90.871269,67.904190 
	C90.895027,166.386215 90.934296,264.868286 90.846161,363.350220 
	C90.840515,369.653412 89.574982,375.946716 89.342293,382.261078 
	C89.138145,387.800903 90.284653,393.110901 96.236740,395.445679 
	C99.460342,396.710175 102.913017,397.987701 106.305611,398.115997 
	C117.941452,398.556091 129.599518,398.361877 141.243469,398.643097 
	C173.391495,399.419464 205.542786,401.151794 237.681183,400.917023 
	C267.478943,400.699310 297.256165,398.289093 327.052826,397.105286 
	C353.660248,396.048187 378.826813,389.911835 401.674805,375.998352 
	C420.252716,364.685150 437.612335,351.806061 450.226257,332.629486 
z"/>
<path fill="#3A6EA4" opacity="1.000000" stroke="none" 
	d="
M450.044006,332.947632 
	C437.612335,351.806061 420.252716,364.685150 401.674805,375.998352 
	C378.826813,389.911835 353.660248,396.048187 327.052826,397.105286 
	C297.256165,398.289093 267.478943,400.699310 237.681183,400.917023 
	C205.542786,401.151794 173.391495,399.419464 141.243469,398.643097 
	C129.599518,398.361877 117.941452,398.556091 106.305611,398.115997 
	C102.913017,397.987701 99.460342,396.710175 96.236740,395.445679 
	C90.284653,393.110901 89.138145,387.800903 89.342293,382.261078 
	C89.574982,375.946716 90.840515,369.653412 90.846161,363.350220 
	C90.934296,264.868286 90.895027,166.386215 90.871269,67.904190 
	C90.869263,59.592049 90.241394,51.240280 90.862885,42.979034 
	C91.475319,34.838123 93.227600,33.890377 101.572975,34.289295 
	C113.387718,34.854053 125.209274,36.066406 137.013916,35.914410 
	C185.648315,35.288177 234.279831,34.362061 282.907501,33.317932 
	C307.085907,32.798782 331.355103,31.893848 355.067261,37.245831 
	C366.605682,39.850124 378.462708,43.637535 388.529266,49.646976 
	C411.983337,63.648357 420.522064,89.906853 412.538177,116.111320 
	C405.003967,140.839966 388.551849,156.795990 364.185699,163.661087 
	C344.542358,169.195511 324.363708,172.910736 304.319366,176.916580 
	C287.347656,180.308365 270.116547,182.458160 253.233643,186.208405 
	C247.217300,187.544815 241.513519,191.448196 236.360641,195.146286 
	C232.209366,198.125534 231.819611,204.022690 234.239014,208.311996 
	C236.668915,212.619888 240.892242,213.470825 245.088196,212.542618 
	C255.465714,210.246948 265.801178,207.691833 276.027832,204.796936 
	C304.258087,196.805695 333.006226,194.982712 362.146210,196.742706 
	C380.147003,197.829910 397.280884,201.815643 413.529480,209.847626 
	C441.157593,223.504715 455.358398,246.513611 459.963776,276.094818 
	C463.051147,295.925598 460.027313,314.913879 450.044006,332.947632 
M189.669983,122.175430 
	C187.206741,194.796967 187.860916,267.423798 189.335220,340.051056 
	C189.558319,351.041931 189.828262,362.035461 190.334442,373.015900 
	C190.800201,383.119568 193.872879,385.937622 203.900116,386.167297 
	C212.059143,386.354187 220.217712,386.572601 228.377655,386.705109 
	C245.533447,386.983673 262.741333,386.459625 279.835663,387.621307 
	C316.539276,390.115540 345.144592,375.147186 368.259644,348.029999 
	C372.470581,343.089996 375.895325,336.939697 377.917175,330.769531 
	C385.711945,306.981812 372.444427,281.023865 347.841278,269.053497 
	C333.381714,262.018341 318.199280,260.623108 302.613434,260.958801 
	C289.555023,261.240051 276.603790,260.656403 264.046021,256.799866 
	C249.210663,252.243851 234.559875,247.405685 223.550018,235.357346 
	C212.356171,223.107697 211.907776,206.791260 223.495041,195.004013 
	C227.999832,190.421463 233.316116,186.554169 238.593384,182.829514 
	C252.330276,173.134125 266.744263,164.333725 279.998535,154.031738 
	C311.539825,129.515961 307.023712,82.438744 271.617157,66.125534 
	C251.387634,56.804996 229.764191,54.182526 207.663391,56.689362 
	C196.607742,57.943382 191.501541,63.249798 190.951996,74.284409 
	C190.173599,89.914345 190.079239,105.578339 189.669983,122.175430 
z"/>
<path fill="#110906" opacity="1.000000" stroke="none" 
	d="
M189.681259,121.701607 
	C190.079239,105.578339 190.173599,89.914345 190.951996,74.284409 
	C191.501541,63.249798 196.607742,57.943382 207.663391,56.689362 
	C229.764191,54.182526 251.387634,56.804996 271.617157,66.125534 
	C307.023712,82.438744 311.539825,129.515961 279.998535,154.031738 
	C266.744263,164.333725 252.330276,173.134125 238.593384,182.829514 
	C233.316116,186.554169 227.999832,190.421463 223.495041,195.004013 
	C211.907776,206.791260 212.356171,223.107697 223.550018,235.357346 
	C234.559875,247.405685 249.210663,252.243851 264.046021,256.799866 
	C276.603790,260.656403 289.555023,261.240051 302.613434,260.958801 
	C318.199280,260.623108 333.381714,262.018341 347.841278,269.053497 
	C372.444427,281.023865 385.711945,306.981812 377.917175,330.769531 
	C375.895325,336.939697 372.470581,343.089996 368.259644,348.029999 
	C345.144592,375.147186 316.539276,390.115540 279.835663,387.621307 
	C262.741333,386.459625 245.533447,386.983673 228.377655,386.705109 
	C220.217712,386.572601 212.059143,386.354187 203.900116,386.167297 
	C193.872879,385.937622 190.800201,383.119568 190.334442,373.015900 
	C189.828262,362.035461 189.558319,351.041931 189.335220,340.051056 
	C187.860916,267.423798 187.206741,194.796967 189.681259,121.701607 
M194.996536,294.507935 
	C195.339584,318.978577 195.666275,343.449524 196.054199,367.919434 
	C196.088303,370.070557 196.545120,372.213074 196.767456,374.363525 
	C197.162552,378.185333 199.339081,379.883301 203.100250,379.950836 
	C232.058868,380.470764 261.015045,381.236877 289.975800,381.492645 
	C312.116425,381.688232 331.213196,373.185089 347.937592,359.167053 
	C353.069641,354.865479 358.444427,350.704742 359.783722,343.123199 
	C363.181244,323.890869 355.309143,309.404968 341.390381,297.334869 
	C328.840851,286.452209 313.870148,282.382538 297.531616,281.937408 
	C283.586426,281.557434 269.497070,281.707275 255.760712,279.671509 
	C239.896484,277.320312 224.745239,271.823639 211.757050,261.788910 
	C192.590546,246.980820 190.305176,226.237839 205.729294,209.460678 
	C208.381027,206.576340 210.148254,202.894470 212.686325,199.886703 
	C217.789139,193.839523 222.347778,186.944595 228.550568,182.292145 
	C243.053574,171.413956 258.538788,161.853958 273.280548,151.278290 
	C276.375458,149.058014 279.051147,145.070480 280.101562,141.379745 
	C285.894745,121.024963 275.208069,97.953064 256.380737,88.123062 
	C241.663742,80.439117 225.754761,78.089752 209.575729,77.106857 
	C196.901901,76.336899 196.235962,77.345055 196.000183,90.266342 
	C195.702591,106.574806 195.305679,122.881531 195.035446,139.190399 
	C194.649323,162.494293 194.052246,185.799667 194.070358,209.103989 
	C194.092239,237.240372 194.663193,265.376312 194.996536,294.507935 
z"/>
<path fill="#000000" opacity="1.000000" stroke="none" 
	d="
M194.996506,294.010193 
	C194.663193,265.376312 194.092239,237.240372 194.070358,209.103989 
	C194.052246,185.799667 194.649323,162.494293 195.035446,139.190399 
	C195.305679,122.881531 195.702591,106.574806 196.000183,90.266342 
	C196.235962,77.345055 196.901901,76.336899 209.575729,77.106857 
	C225.754761,78.089752 241.663742,80.439117 256.380737,88.123062 
	C275.208069,97.953064 285.894745,121.024963 280.101562,141.379745 
	C279.051147,145.070480 276.375458,149.058014 273.280548,151.278290 
	C258.538788,161.853958 243.053574,171.413956 228.550568,182.292145 
	C222.347778,186.944595 217.789139,193.839523 212.686325,199.886703 
	C210.148254,202.894470 208.381027,206.576340 205.729294,209.460678 
	C190.305176,226.237839 192.590546,246.980820 211.757050,261.788910 
	C224.745239,271.823639 239.896484,277.320312 255.760712,279.671509 
	C269.497070,281.707275 283.586426,281.557434 297.531616,281.937408 
	C313.870148,282.382538 328.840851,286.452209 341.390381,297.334869 
	C355.309143,309.404968 363.181244,323.890869 359.783722,343.123199 
	C358.444427,350.704742 353.069641,354.865479 347.937592,359.167053 
	C331.213196,373.185089 312.116425,381.688232 289.975800,381.492645 
	C261.015045,381.236877 232.058868,380.470764 203.100250,379.950836 
	C199.339081,379.883301 197.162552,378.185333 196.767456,374.363525 
	C196.545120,372.213074 196.088303,370.070557 196.054199,367.919434 
	C195.666275,343.449524 195.339584,318.978577 194.996506,294.010193 
z"/>
</svg>