<svg width="24" height="25" viewBox="0 0 24 25" fill="none" xmlns="http://www.w3.org/2000/svg">
<path d="M17.9199 7.495C17.8185 7.25065 17.6243 7.05647 17.3799 6.955C17.2597 6.90376 17.1306 6.87658 16.9999 6.875H6.99994C6.73472 6.875 6.48037 6.98036 6.29283 7.16789C6.1053 7.35543 5.99994 7.60978 5.99994 7.875C5.99994 8.14022 6.1053 8.39457 6.29283 8.58211C6.48037 8.76964 6.73472 8.875 6.99994 8.875H14.5899L6.28994 17.165C6.19621 17.258 6.12182 17.3686 6.07105 17.4904C6.02028 17.6123 5.99414 17.743 5.99414 17.875C5.99414 18.007 6.02028 18.1377 6.07105 18.2596C6.12182 18.3814 6.19621 18.492 6.28994 18.585C6.3829 18.6787 6.4935 18.7531 6.61536 18.8039C6.73722 18.8547 6.86793 18.8808 6.99994 18.8808C7.13195 18.8808 7.26266 18.8547 7.38452 18.8039C7.50638 18.7531 7.61698 18.6787 7.70994 18.585L15.9999 10.285V17.875C15.9999 18.1402 16.1053 18.3946 16.2928 18.5821C16.4804 18.7696 16.7347 18.875 16.9999 18.875C17.2652 18.875 17.5195 18.7696 17.707 18.5821C17.8946 18.3946 17.9999 18.1402 17.9999 17.875V7.875C17.9984 7.74432 17.9712 7.61522 17.9199 7.495V7.495Z" fill="white"/>
</svg>
