<?xml version="1.0" encoding="iso-8859-1"?>
<!-- Uploaded to: SVG Repo, www.svgrepo.com, Generator: SVG Repo Mixer Tools -->
<svg fill="#000000" height="800px" width="800px" version="1.1" id="Layer_1" xmlns="http://www.w3.org/2000/svg" xmlns:xlink="http://www.w3.org/1999/xlink" 
	 viewBox="0 0 511.857 511.857" xml:space="preserve">
<g>
	<g>
		<path d="M319.957,118.36v-43.7c0-10.5-7.7-19.5-18.1-21.1l-277.3-42.7c-8.1-1.3-16.4,2.3-21,9.2c-4.5,6.9-4.8,15.8-0.5,22.9
			l60.9,101.6v71.1c-27.5,30.4-42.7,70.7-42.7,114.9c0,94.1,76.6,170.7,170.7,170.7s170.7-76.6,170.7-170.7
			c0-44.2-15.2-84.6-42.7-114.9v-54.3c84.1,10.5,149.3,82.3,149.3,169.2c0,11.8,9.6,21.3,21.3,21.3c11.8,0,21.3-9.6,21.3-21.3
			C511.957,220.16,427.657,129.16,319.957,118.36z M277.357,202.66h-170.7v-42.7h170.7V202.66z"/>
	</g>
</g>
</svg>